<svg xmlns="http://www.w3.org/2000/svg" xmlns:xlink="http://www.w3.org/1999/xlink" version="1.1" x="0px" y="0px" viewBox="0 0 100 100" enable-background="new 0 0 100 100" xml:space="preserve"><g><path d="M78.1,76.6c-6.3-1.3-13.6-2.9-20.7-4.4c10.6-2.3,19.8-4.3,20.9-4.7c0.8-0.3,1.2-1.1,1-1.9c-0.3-0.8-1.1-1.2-1.9-1   c-1.2,0.4-13.2,3-27.3,6c-14-3-26.1-5.6-27.3-6c-0.8-0.3-1.7,0.2-1.9,1c-0.3,0.8,0.2,1.7,1,1.9c1.1,0.4,10.3,2.4,20.9,4.7   c-7.2,1.5-14.4,3.1-20.7,4.4c-0.8,0.2-1.4,1-1.2,1.8c0.2,0.7,0.8,1.2,1.5,1.2c0.1,0,0.2,0,0.3,0c2.6-0.5,15-3.2,27.4-5.8   c12.4,2.7,24.8,5.3,27.4,5.8c0.1,0,0.2,0,0.3,0c0.7,0,1.3-0.5,1.5-1.2C79.4,77.6,78.9,76.7,78.1,76.6z"></path><path d="M48,65.5c15.3,0,18.6-9.3,18.6-17.2c0-7.8-3.6-14.8-11.1-21.7c-0.5-0.4-1.2-0.5-1.7-0.2c-0.6,0.3-0.9,0.9-0.8,1.5   c0.6,5.4,0.2,8.9-1.2,10.4c-0.7,0.8-1.7,1.1-3.2,1.1c-1.4,0-2.4-0.6-3.2-1.7c-1.9-3-1.4-8.9,1.3-15.2c0.3-0.6,0.1-1.4-0.4-1.8   c-0.5-0.4-1.3-0.5-1.9-0.1c-8.7,6.2-14,16.6-14,27.7C30.5,59.3,36.9,65.5,48,65.5z M55.3,58.5c-1.9,2.4-5.1,3.3-7.3,3.3   c-2.2,0-4.1-0.9-5.4-2.5c-1.2-1.5-1.9-3.4-2-5.6c1.9,1.8,4.1,2.6,6.8,2.6c2.7,0,6.5-0.3,9.5-2.8C56.9,55.5,56.4,57.2,55.3,58.5z    M42,26.8c-1.3,5.2-1.1,9.7,0.8,12.6c1.3,2,3.3,3.1,5.7,3.1c2.4,0,4.2-0.7,5.4-2.1c1.6-1.7,2.3-4.5,2.3-8.7   c4.9,5.3,7.2,10.8,7.2,16.6c0,5.8-1.9,9.7-5.7,12c1.5-2,2.9-5.4,1.5-10.6c-0.1-0.6-0.6-1-1.2-1.1c-0.6-0.1-1.2,0.1-1.5,0.6   c-0.1,0.1-0.2,0.2-0.3,0.4c-0.1,0.1-0.2,0.3-0.4,0.4c-1.8,2.3-4.4,3.3-8.6,3.3c-2.5,0-4.3-1-6-3.3c-0.2-0.3-0.4-0.6-0.6-1   c-0.3-0.6-0.9-0.9-1.6-0.8c-0.6,0.1-1.1,0.6-1.3,1.2c-0.9,4.3-0.2,8.4,1.9,11.3c-4.1-2.1-6.3-6.3-6.3-12.3   C33.6,45.1,34.2,34.9,42,26.8z"></path></g></svg>